<svg width="261" height="194" viewBox="0 0 261 194" fill="none" xmlns="http://www.w3.org/2000/svg">
<path d="M96.5 23.75V34.5C96.5 38.9183 100.082 42.5 104.5 42.5H250.5V31.75C250.5 27.3317 246.918 23.75 242.5 23.75H96.5Z" fill="#FFD7EA"/>
<path d="M96.5 23.75V34.5C96.5 38.9183 100.082 42.5 104.5 42.5H250.5M96.5 23.75V13C96.5 8.58172 92.9183 5 88.5 5H13C8.58172 5 5 8.58172 5 13V188.5H256V48C256 44.9624 253.538 42.5 250.5 42.5M96.5 23.75H242.5C246.918 23.75 250.5 27.3317 250.5 31.75V42.5" stroke="#FFADD3" stroke-width="10"/>
<circle cx="131" cy="156" r="13" fill="#D9D9D9"/>
<circle cx="171" cy="156" r="13" fill="#D9D9D9"/>
<circle cx="91" cy="156" r="13" fill="#39D94F"/>
</svg>
